<svg width="50" height="50" viewBox="0 0 50 50" fill="none" xmlns="http://www.w3.org/2000/svg">
<path d="M0 8.75C0 6.71875 1.64062 5 3.75 5H28.75C30.7812 5 32.5 6.71875 32.5 8.75V12.5H36.4062C37.7344 12.5 39.0625 13.0469 40 13.9844L46.0156 20C46.9531 20.9375 47.5 22.2656 47.5 23.5938V25V27.5V32.5C48.8281 32.5 50 33.6719 50 35C50 36.4062 48.8281 37.5 47.5 37.5H45H44.8438C44.2969 33.2812 40.625 30 36.25 30C31.7969 30 28.125 33.2812 27.5781 37.5H22.3438C21.7969 33.2812 18.125 30 13.6719 30C9.29688 30 5.625 33.2812 5.07812 37.5H3.75C1.64062 37.5 0 35.8594 0 33.75V8.75ZM32.5 25H42.5V23.5938L36.4062 17.5H32.5V25ZM20.7812 9.0625C20.3125 8.67188 19.6875 8.67188 19.2188 9.0625L9.21875 16.5625C8.75 16.875 8.59375 17.4219 8.75 17.9688C8.98438 18.4375 9.45312 18.75 10 18.75H14.2188L11.3281 24.4531C11.0938 25 11.25 25.625 11.6406 26.0156C12.1094 26.3281 12.7344 26.4062 13.2031 26.0156L23.2031 18.5156C23.6719 18.2031 23.8281 17.6562 23.6719 17.1094C23.5156 16.6406 22.9688 16.25 22.5 16.25H18.2031L21.0938 10.625C21.3281 10.0781 21.1719 9.45312 20.7812 9.0625Z" fill="#00C7BE"/>
<path opacity="0.4" d="M7.5 38.75C7.5 36.5625 8.67188 34.5312 10.625 33.3594C12.5 32.2656 14.9219 32.2656 16.875 33.3594C18.75 34.5312 20 36.5625 20 38.75C20 41.0156 18.75 43.0469 16.875 44.2188C14.9219 45.3125 12.5 45.3125 10.625 44.2188C8.67188 43.0469 7.5 41.0156 7.5 38.75ZM8.75 17.9688C8.59375 17.4219 8.75 16.875 9.21875 16.5625L19.2188 9.0625C19.6875 8.67188 20.3125 8.75 20.7812 9.0625C21.1719 9.45312 21.3281 10.0781 21.0938 10.625L18.2031 16.25H22.5C22.9688 16.25 23.5156 16.6406 23.6719 17.1094C23.8281 17.6562 23.6719 18.2031 23.2031 18.5156L13.2031 26.0156C12.7344 26.4062 12.1094 26.3281 11.6406 26.0156C11.25 25.625 11.0938 25 11.3281 24.4531L14.2188 18.75H10C9.45312 18.75 8.98438 18.4375 8.75 17.9688ZM30 38.75C30 36.5625 31.1719 34.5312 33.125 33.3594C35 32.2656 37.4219 32.2656 39.375 33.3594C41.25 34.5312 42.5 36.5625 42.5 38.75C42.5 41.0156 41.25 43.0469 39.375 44.2188C37.4219 45.3125 35 45.3125 33.125 44.2188C31.1719 43.0469 30 41.0156 30 38.75Z" fill="#00C7BE"/>
</svg>
