<svg width="81" height="80" viewBox="0 0 81 80" fill="none" xmlns="http://www.w3.org/2000/svg">
<path d="M1.875 32.375C0 29.125 1.125 24.875 4.375 22.875L28.5 9C31.875 7.125 36.125 8.25 38 11.5L58.875 47.75C60.875 51 59.75 55.25 56.375 57.25L32.25 71.125C28.875 73 24.625 71.875 22.75 68.625L1.875 32.375Z" fill="#AF52DE"/>
<path opacity="0.4" d="M39.25 67.125C45 63.75 50.625 60.5 56.375 57.25C56.75 57 57.125 56.75 57.5 56.375C58.25 55.75 58.875 54.875 59.25 54C59.625 53.125 59.875 52.125 59.875 51.125C59.875 50 59.5 48.75 58.875 47.75C53.125 37.625 47.375 27.625 41.5 17.625C42.75 16.625 44.25 16 46 16H74C77.75 16 81 19.25 81 23V65C81 68.875 77.75 72 74 72H46C42.75 72 40.125 70 39.25 67.125Z" fill="#AF52DE"/>
</svg>
