<svg width="60" height="60" viewBox="0 0 60 60" fill="none" xmlns="http://www.w3.org/2000/svg">
<path d="M46.5 27H49.5C50.25 27 51 27.75 51 28.5V31.5C51 32.3438 50.25 33 49.5 33H46.5C45.6562 33 45 32.3438 45 31.5V28.5C45 27.75 45.6562 27 46.5 27ZM3 33C3 31.4062 4.3125 30 6 30H30C31.5938 30 33 31.4062 33 33V34.2188L18.375 45C18.2812 45.0938 18.0938 45.1875 18 45.1875C17.8125 45.1875 17.625 45.0938 17.5312 45L3 34.2188V33ZM20.25 47.4375L33 37.9688V51C33 52.6875 31.5938 54 30 54H6C4.3125 54 3 52.6875 3 51V37.9688L15.75 47.4375C16.3125 47.9062 17.1562 48.1875 18 48.1875C18.75 48.1875 19.5938 47.9062 20.25 47.4375Z" fill="#FF9500"/>
<path opacity="0.4" d="M3 34.2188C7.78125 37.875 12.6562 41.4375 17.5312 45C17.625 45.0938 17.8125 45.1875 18 45.1875C18.0938 45.1875 18.2812 45.0938 18.375 45C23.25 41.4375 28.125 37.875 33 34.2188V37.9688L20.25 47.4375C19.5938 47.9062 18.75 48.1875 18 48.1875C17.1562 48.1875 16.3125 47.9062 15.75 47.4375L3 37.9688V34.2188ZM9 9C9 7.40625 10.3125 6 12 6H42C43.5938 6 45 7.40625 45 9V18H24C20.625 18 18 20.7188 18 24V27H9V9ZM21 24C21 22.4062 22.3125 21 24 21H54C55.5938 21 57 22.4062 57 24V42C57 43.6875 55.5938 45 54 45H36V33C36 29.7188 33.2812 27 30 27H21V24ZM45 28.5V31.5C45 32.3438 45.6562 33 46.5 33H49.5C50.25 33 51 32.3438 51 31.5V28.5C51 27.75 50.25 27 49.5 27H46.5C45.6562 27 45 27.75 45 28.5Z" fill="#FF9500"/>
</svg>
