<svg width="60" height="60" viewBox="0 0 60 60" fill="none" xmlns="http://www.w3.org/2000/svg">
<path d="M6 13.5C6 11.0625 7.96875 9 10.5 9L24.4688 9.09375C26.0625 9.09375 27.5625 9.65625 28.6875 10.7812L44.4375 26.5312C46.7812 28.875 46.7812 32.7188 44.4375 35.0625L31.9688 47.5312C29.625 49.875 25.7812 49.875 23.4375 47.5312L7.6875 31.7812C6.5625 30.6562 6 29.1562 6 27.5625V13.5ZM16.5 16.5C14.8125 16.5 13.5 17.9062 13.5 19.5C13.5 21.1875 14.8125 22.5 16.5 22.5C18.0938 22.5 19.5 21.1875 19.5 19.5C19.5 17.9062 18.0938 16.5 16.5 16.5Z" fill="#007AFF"/>
<path opacity="0.4" d="M34.4062 11.25C34.4062 10.6875 34.6875 10.125 35.1562 9.65625C35.5312 9.28125 36.0938 9 36.6562 9C37.3125 9 37.875 9.28125 38.3438 9.75L50.25 21.8438C52.7812 24.2812 54 27.5625 54 30.75C54 34.0312 52.7812 37.3125 50.25 39.75L39.75 50.3438C39.375 50.8125 38.8125 51 38.1562 51C37.5938 51 37.0312 50.8125 36.5625 50.3438C35.7188 49.5 35.7188 48.0938 36.5625 47.25L47.0625 36.5625C50.25 33.375 50.25 28.2188 47.0625 25.0312L35.0625 12.8438C34.6875 12.4688 34.4062 11.9062 34.4062 11.25Z" fill="#007AFF"/>
</svg>
