<svg width="50" height="50" viewBox="0 0 50 50" fill="none" xmlns="http://www.w3.org/2000/svg">
<path d="M47.1875 15.9375C46.6406 18.2031 46.5625 20.7031 46.7969 22.9688C46.7969 23.2812 46.875 23.5156 46.875 23.75C46.875 27.1094 44.6875 29.8438 41.7969 30.8594C40.625 31.25 39.5312 31.7188 38.6719 32.5781L36.4062 34.8438C35.4688 35.7812 34.2188 36.25 32.8906 36.25H29.5312C28.2031 36.25 26.9531 36.7969 26.0156 37.7344L25.1562 38.5938C24.2188 39.5312 22.9688 40 21.6406 40H18.0469C16.7188 40 15.4688 40.5469 14.5312 41.4844L11.7188 44.2969C10.7031 45.2344 9.14062 45.2344 8.20312 44.2969C7.1875 43.2812 7.1875 41.7188 8.20312 40.7812L11.0156 37.9688C11.9531 37.0312 12.4219 35.7031 12.4219 34.375V30.8594C12.4219 29.5312 12.9688 28.2031 13.9062 27.2656L14.6875 26.4844C15.625 25.5469 16.1719 24.2969 16.1719 22.9688V19.6094C16.1719 18.2812 16.7188 16.9531 17.6562 16.0156L19.9219 13.75C20.7812 12.8906 21.1719 11.7969 21.5625 10.7031C22.6562 7.8125 25.3906 5.625 28.75 5.625C28.9844 5.625 29.2188 5.70312 29.5312 5.70312C31.7969 5.9375 34.2969 5.85938 36.5625 5.3125C37.2656 5.15625 37.9688 5 38.75 5C43.5156 5 47.5 8.98438 47.5 13.75C47.5 14.5312 47.3438 15.2344 47.1875 15.9375ZM39.6094 14.6875C40.0781 14.2188 40.0781 13.3594 39.6094 12.8906C39.1406 12.4219 38.2812 12.4219 37.8125 12.8906L29.0625 21.6406L26.25 24.5312V20C26.25 19.375 25.625 18.75 25 18.75C24.2969 18.75 23.75 19.375 23.75 20V27.0312L20.3125 30.3906C19.8438 30.8594 19.8438 31.7188 20.3125 32.1875C20.7812 32.6562 21.6406 32.6562 22.1094 32.1875L25.8594 28.4375L30.4688 23.75H37.5C38.125 23.75 38.75 23.2031 38.75 22.5C38.75 21.875 38.125 21.25 37.5 21.25H32.9688L39.6094 14.6875Z" fill="#34C759"/>
<path opacity="0.4" d="M2.5 18.3594C2.5 16.7188 3.125 15.0781 4.375 13.75C4.53125 13.5938 4.6875 13.4375 4.84375 13.2812C6.40625 12.0312 7.96875 10.4688 8.98438 8.75C9.29688 8.20312 9.6875 7.73438 10.0781 7.26562C11.5625 5.78125 13.5156 5 15.4688 5C17.4219 5 19.375 5.78125 20.8594 7.26562C21.3281 7.65625 21.7188 8.20312 22.0312 8.75C22.1094 8.90625 22.1875 9.0625 22.3438 9.21875C22.1875 9.45312 22.0312 9.6875 21.9531 9.92188C21.875 10.0781 21.7969 10.1562 21.7188 10.3125C21.7188 10.3906 21.7188 10.4688 21.6406 10.5469C21.6406 10.5469 21.6406 10.625 21.6406 10.7031C21.25 11.7969 20.7812 12.9688 19.9219 13.75L17.6562 16.0156C16.7188 16.9531 16.1719 18.2812 16.1719 19.6094V22.9688C16.1719 24.2969 15.7031 25.5469 14.7656 26.4844L13.9062 27.3438C12.9688 28.2812 12.5 29.5312 12.5 30.8594V34.4531C12.5 35.7812 11.9531 37.0312 11.0156 37.9688C10.625 38.3594 10.2344 38.75 9.84375 39.1406C9.0625 38.3594 8.59375 37.2656 8.59375 36.0938V35.0781C8.59375 33.9844 8.125 32.8125 7.34375 32.0312L5.23438 30C4.45312 29.1406 3.98438 28.0469 3.98438 26.9531V24.1406C3.98438 23.125 3.59375 22.1094 3.125 21.25C2.65625 20.3125 2.5 19.375 2.5 18.3594ZM20.3125 30.3906L23.75 27.0312V20C23.75 19.375 24.2969 18.75 25 18.75C25.625 18.75 26.25 19.375 26.25 20V24.5312L29.0625 21.6406L37.8125 12.8906C38.2812 12.4219 39.1406 12.4219 39.6094 12.8906C40.0781 13.3594 40.0781 14.2188 39.6094 14.6875L32.9688 21.25H37.5C38.125 21.25 38.75 21.875 38.75 22.5C38.75 23.2031 38.125 23.75 37.5 23.75H30.4688L25.8594 28.4375L22.1094 32.1875C21.6406 32.6562 20.7812 32.6562 20.3125 32.1875C19.8438 31.7188 19.8438 30.8594 20.3125 30.3906Z" fill="#34C759"/>
</svg>
